<svg width="500" height="500" viewBox="0 0 500 500"
     xmlns="http://www.w3.org/2000/svg"
     style="background:#000">
  <style>
    @keyframes radarWave{0%{transform:scale(0);opacity:1;}70%{opacity:0.6;}100%{transform:scale(1);opacity:0;}}.wave{transform-origin:50%50%;transform-box:fill-box;transform:scale(0);opacity:0;animation:radarWave 2.5s linear infinite;animation-fill-mode:both;}
  </style>
  <g fill="none" stroke="#7c2cab" stroke-width="100">
    <circle cx="250" cy="250" r="240" class="wave" />    
  </g>
  <g fill="none" stroke="#ffffff" stroke-width="1">
    <rect x="230" y="230" width="40" height="40" />
    <rect x="220" y="220" width="60" height="60" />
    <rect x="210" y="210" width="80" height="80" />
    <rect x="200" y="200" width="100" height="100" />
    <rect x="190" y="190" width="120" height="120" />
    <rect x="180" y="180" width="140" height="140" />
    <rect x="170" y="170" width="160" height="160" />
    <rect x="160" y="160" width="180" height="180" />
    <rect x="150" y="150" width="200" height="200" />
    <rect x="140" y="140" width="220" height="220" />
    <rect x="130" y="130" width="240" height="240" />
    <rect x="120" y="120" width="260" height="260" />
    <rect x="110" y="110" width="280" height="280" />
    <rect x="100" y="100" width="300" height="300" />
    <rect x="90" y="90" width="320" height="320" />
    <rect x="80" y="80" width="340" height="340" />
    <rect x="70" y="70" width="360" height="360" />
    <rect x="60" y="60" width="380" height="380" />
    <rect x="50" y="50" width="400" height="400" />
    <rect x="40" y="40" width="420" height="420" />
    <rect x="30" y="30" width="440" height="440" />
    <rect x="20" y="20" width="460" height="460" />
    <rect x="10" y="10" width="480" height="480" />
  </g>
</svg>